REM DIRINDEX 1\2,1\3,1\4,1\5
REM DIRNAME folder01,folder02,folder03,folder04,folder05
TITLE ""
FILE "P1Q_t_1491-1500.mp3" MP3
  TRACK 01 AUDIO
    TITLE "3:cjc005_5381"
    INDEX 01 00:00:00
  TRACK 02 AUDIO
    TITLE "0:"
    INDEX 01 00:01:09
  TRACK 03 AUDIO
    TITLE "4:cjc005_5382"
    INDEX 01 00:01:32
  TRACK 04 AUDIO
    TITLE "0:"
    INDEX 01 00:02:61
  TRACK 05 AUDIO
    TITLE "5:cjc005_5383"
    INDEX 01 00:03:08
  TRACK 06 AUDIO
    TITLE "0:"
    INDEX 01 00:07:19
  TRACK 07 AUDIO
    TITLE "3:cjc005_5384"
    INDEX 01 00:07:72
  TRACK 08 AUDIO
    TITLE "0:"
    INDEX 01 00:09:12
  TRACK 09 AUDIO
    TITLE "4:cjc005_5385"
    INDEX 01 00:09:44
  TRACK 10 AUDIO
    TITLE "0:"
    INDEX 01 00:10:55
  TRACK 11 AUDIO
    TITLE "5:cjc005_5386"
    INDEX 01 00:11:07
  TRACK 12 AUDIO
    TITLE "0:"
    INDEX 01 00:14:17
  TRACK 13 AUDIO
    TITLE "3:cjc005_5387"
    INDEX 01 00:15:03
  TRACK 14 AUDIO
    TITLE "0:"
    INDEX 01 00:16:18
  TRACK 15 AUDIO
    TITLE "4:cjc005_5388"
    INDEX 01 00:16:44
  TRACK 16 AUDIO
    TITLE "0:"
    INDEX 01 00:17:67
  TRACK 17 AUDIO
    TITLE "5:cjc005_5389"
    INDEX 01 00:18:17
  TRACK 18 AUDIO
    TITLE "0:"
    INDEX 01 00:22:13
  TRACK 19 AUDIO
    TITLE "3:cjc005_5390"
    INDEX 01 00:22:70
  TRACK 20 AUDIO
    TITLE "0:"
    INDEX 01 00:24:22
  TRACK 21 AUDIO
    TITLE "4:cjc005_5391"
    INDEX 01 00:24:49
  TRACK 22 AUDIO
    TITLE "0:"
    INDEX 01 00:25:58
  TRACK 23 AUDIO
    TITLE "5:cjc005_5392"
    INDEX 01 00:26:09
  TRACK 24 AUDIO
    TITLE "0:"
    INDEX 01 00:30:22
  TRACK 25 AUDIO
    TITLE "3:cjc005_5393"
    INDEX 01 00:30:71
  TRACK 26 AUDIO
    TITLE "0:"
    INDEX 01 00:32:03
  TRACK 27 AUDIO
    TITLE "4:cjc005_5394"
    INDEX 01 00:32:27
  TRACK 28 AUDIO
    TITLE "0:"
    INDEX 01 00:33:40
  TRACK 29 AUDIO
    TITLE "5:cjc005_5395"
    INDEX 01 00:33:66
  TRACK 30 AUDIO
    TITLE "0:"
    INDEX 01 00:37:71
  TRACK 31 AUDIO
    TITLE "3:cjc005_5396"
    INDEX 01 00:38:43
  TRACK 32 AUDIO
    TITLE "0:"
    INDEX 01 00:39:58
  TRACK 33 AUDIO
    TITLE "4:cjc005_5397"
    INDEX 01 00:40:23
  TRACK 34 AUDIO
    TITLE "0:"
    INDEX 01 00:41:28
  TRACK 35 AUDIO
    TITLE "5:cjc005_5398"
    INDEX 01 00:41:51
  TRACK 36 AUDIO
    TITLE "0:"
    INDEX 01 00:45:55
  TRACK 37 AUDIO
    TITLE "3:cjc005_5399"
    INDEX 01 00:46:27
  TRACK 38 AUDIO
    TITLE "0:"
    INDEX 01 00:47:34
  TRACK 39 AUDIO
    TITLE "4:cjc005_5400"
    INDEX 01 00:47:64
  TRACK 40 AUDIO
    TITLE "0:"
    INDEX 01 00:49:18
  TRACK 41 AUDIO
    TITLE "5:cjc005_5401"
    INDEX 01 00:49:43
  TRACK 42 AUDIO
    TITLE "0:"
    INDEX 01 00:52:47
  TRACK 43 AUDIO
    TITLE "3:cjc005_5402"
    INDEX 01 00:53:25
  TRACK 44 AUDIO
    TITLE "0:"
    INDEX 01 00:54:46
  TRACK 45 AUDIO
    TITLE "4:cjc005_5403"
    INDEX 01 00:55:01
  TRACK 46 AUDIO
    TITLE "0:"
    INDEX 01 00:56:31
  TRACK 47 AUDIO
    TITLE "5:cjc005_5404"
    INDEX 01 00:56:59
  TRACK 48 AUDIO
    TITLE "0:"
    INDEX 01 01:01:58
  TRACK 49 AUDIO
    TITLE "3:cjc005_5405"
    INDEX 01 01:02:34
  TRACK 50 AUDIO
    TITLE "0:"
    INDEX 01 01:03:55
  TRACK 51 AUDIO
    TITLE "4:cjc005_5406"
    INDEX 01 01:04:11
  TRACK 52 AUDIO
    TITLE "0:"
    INDEX 01 01:05:40
  TRACK 53 AUDIO
    TITLE "5:cjc005_5407"
    INDEX 01 01:05:58
  TRACK 54 AUDIO
    TITLE "0:"
    INDEX 01 01:11:15
  TRACK 55 AUDIO
    TITLE "3:cjc005_5408"
    INDEX 01 01:11:68
  TRACK 56 AUDIO
    TITLE "0:"
    INDEX 01 01:13:12
  TRACK 57 AUDIO
    TITLE "4:cjc005_5409"
    INDEX 01 01:13:36
  TRACK 58 AUDIO
    TITLE "0:"
    INDEX 01 01:14:49
  TRACK 59 AUDIO
    TITLE "5:cjc005_5410"
    INDEX 01 01:15:01
  TRACK 60 AUDIO
    TITLE "0:"
    INDEX 01 01:17:73
